<?xml version="1.0" standalone="no"?>
<!DOCTYPE svg PUBLIC "-//W3C//DTD SVG 20010904//EN"
 "http://www.w3.org/TR/2001/REC-SVG-20010904/DTD/svg10.dtd">
<svg version="1.0" xmlns="http://www.w3.org/2000/svg"
 width="512.000000pt" height="512.000000pt" viewBox="0 0 512.000000 512.000000"
 preserveAspectRatio="xMidYMid meet">

<g transform="translate(0.000000,512.000000) scale(0.100000,-0.100000)"
fill="#000000" stroke="none">
<path d="M4220 5105 c-281 -57 -474 -240 -665 -630 -333 -678 -202 -1136 314
-1102 164 11 417 79 446 120 22 31 19 70 -8 95 -30 28 -57 28 -145 -2 -126
-43 -221 -60 -337 -61 -101 0 -115 2 -168 28 -69 34 -103 80 -123 164 -18 75
-17 130 1 239 47 274 235 662 403 828 245 244 611 246 853 6 189 -189 230
-451 109 -697 -52 -105 -131 -186 -277 -284 -60 -39 -111 -77 -115 -83 -18
-27 -8 -75 19 -96 39 -30 67 -22 186 57 118 78 247 203 296 285 135 230 146
497 30 732 -148 299 -491 467 -819 401z"/>
<path d="M2181 4620 c-262 -56 -477 -235 -568 -474 l-27 -73 -71 33 c-138 63
-317 81 -468 48 -93 -20 -236 -90 -312 -151 -124 -101 -226 -268 -261 -427
-32 -152 -5 -366 65 -495 l18 -35 -80 -32 c-490 -198 -633 -813 -278 -1205 85
-95 232 -189 334 -213 l27 -6 -24 -48 c-54 -106 -71 -187 -71 -332 0 -114 4
-147 23 -210 80 -253 259 -432 512 -512 64 -20 95 -23 215 -22 125 0 149 3
220 27 44 15 95 36 114 46 l35 18 32 -80 c198 -490 813 -633 1205 -278 94 85
189 232 213 333 l6 27 73 -34 c111 -51 209 -69 341 -62 328 16 587 218 688
537 19 63 23 96 23 210 0 145 -17 226 -71 331 l-23 47 52 17 c175 56 342 205
427 380 183 378 32 818 -347 1009 -178 89 -378 95 -672 20 -73 -19 -137 -34
-141 -34 -4 0 -23 24 -43 54 -73 110 -210 246 -323 322 l-52 34 24 77 c65 211
85 443 51 585 -64 261 -259 465 -522 548 -79 24 -270 36 -344 20z m329 -174
c185 -64 328 -216 386 -411 34 -114 19 -316 -40 -516 l-17 -56 -87 33 c-137
51 -273 75 -432 75 -119 0 -223 -10 -281 -27 -13 -3 -28 15 -59 73 -58 109
-141 229 -206 301 l-55 62 16 57 c61 213 237 381 447 428 94 22 235 14 328
-19z m-1162 -441 c192 -45 335 -172 478 -423 46 -81 50 -92 34 -92 -22 0 -195
-92 -269 -143 -94 -65 -231 -199 -296 -292 -27 -38 -50 -72 -52 -74 -1 -2 -44
8 -95 22 -126 35 -236 56 -343 65 l-90 7 -37 70 c-180 340 15 769 390 860 76
18 203 18 280 0z m1235 -613 c429 -116 748 -458 822 -881 30 -170 14 -392 -38
-546 -130 -381 -456 -665 -850 -740 -163 -31 -397 -15 -552 38 -138 47 -288
133 -378 216 -56 52 -84 63 -123 46 -33 -14 -44 -32 -44 -72 0 -30 58 -88 160
-161 36 -25 67 -47 69 -49 2 -1 -8 -44 -22 -95 -35 -126 -56 -236 -65 -343
l-7 -90 -70 -37 c-377 -199 -841 60 -872 488 -18 243 88 433 331 596 84 56
186 113 189 106 92 -193 122 -227 175 -198 15 9 33 28 40 43 12 26 10 35 -24
105 -82 170 -114 311 -114 497 0 133 17 243 54 351 125 369 442 652 820 734
126 27 383 23 499 -8z m-1608 -503 c50 -10 113 -26 141 -34 l51 -15 -33 -88
c-52 -138 -76 -275 -76 -432 0 -116 10 -221 28 -281 3 -13 -15 -28 -73 -59
-111 -60 -228 -139 -299 -204 l-62 -56 -56 15 c-167 44 -321 174 -392 331 -28
64 -54 186 -54 257 0 76 33 196 77 280 84 160 260 282 448 311 54 8 208 -5
300 -25z m3020 16 c90 -19 215 -81 282 -140 152 -134 231 -368 189 -565 -47
-224 -210 -400 -431 -466 -92 -28 -249 -24 -400 11 -66 15 -132 32 -147 39
l-27 11 25 60 c14 33 37 103 51 155 25 89 27 109 27 305 0 197 -2 216 -27 308
-15 54 -38 124 -51 157 l-24 59 31 10 c120 38 286 68 377 70 30 0 87 -6 125
-14z m-461 -1290 c74 -19 191 -40 258 -47 l123 -13 37 -70 c210 -397 -86 -876
-541 -875 -192 1 -369 97 -500 273 -54 73 -133 202 -145 237 -4 11 24 29 102
67 181 86 355 232 467 392 28 39 53 70 56 71 4 0 68 -16 143 -35z m-1608 -498
c130 -41 245 -59 383 -59 110 1 231 12 282 28 13 3 27 -15 58 -71 58 -108 134
-219 202 -296 l58 -67 -15 -57 c-34 -134 -126 -261 -242 -339 -344 -228 -798
-61 -918 339 -35 116 -20 313 41 523 l16 52 27 -14 c15 -7 64 -25 108 -39z"/>
<path d="M1643 2466 c-27 -23 -28 -28 -28 -114 0 -107 14 -132 75 -132 61 0
75 25 75 132 0 86 -1 91 -28 114 -15 13 -37 24 -47 24 -10 0 -32 -11 -47 -24z"/>
<path d="M2910 2477 c-39 -20 -51 -54 -48 -138 4 -91 21 -119 75 -119 59 0 73
26 73 133 0 77 -3 97 -17 109 -27 24 -55 29 -83 15z"/>
<path d="M2108 2356 c-51 -38 -36 -106 34 -153 96 -66 200 -74 303 -24 35 18
73 44 85 58 27 35 26 84 -3 111 -33 31 -69 27 -117 -13 -36 -30 -49 -35 -95
-35 -45 0 -58 5 -96 35 -46 36 -82 43 -111 21z"/>
</g>
</svg>
